# xmcd
#
# Track frame offsets:
#	150
#	12960
#	28910
#	42822
#	59144
#	76670
#	93239
#	109553
#	129787
#	145814
#	167633
#
# Disc length: 2501 seconds
#
# Revision: 0
# Processed by: cddbd v1.5.2PL0 Copyright (c) Steve Scherf et al.
# Submitted via: EZCDAudioConverter 3.1.0.1
#
DISCID=8209c30b
DTITLE=바버렛츠 - The Barberettes
DYEAR=2016
DGENRE=Pop
TTITLE0=Like I Do
TTITLE1=Love Shoes (feat. Stuart Zender)
TTITLE2=품절남
TTITLE3=피셔맨
TTITLE4=Fairy Tale
TTITLE5=멋쟁이 신사
TTITLE6=신경쓰지마
TTITLE7=사랑한다면
TTITLE8=I'll Be Your Friend
TTITLE9=바다 아저씨 (feat. 강이채)
TTITLE10=Time 2 Love (feat. Marty Friedman)
EXTD=
EXTT0=
EXTT1=
EXTT2=
EXTT3=
EXTT4=
EXTT5=
EXTT6=
EXTT7=
EXTT8=
EXTT9=
EXTT10=
PLAYORDER=
